<svg xmlns="http://www.w3.org/2000/svg" viewBox="0 0 100 100" width="100" height="100" role="img" aria-label="TorchRef">
  <title>TorchRef — small mark</title>
  <rect x="0" y="0" width="100" height="100" fill="#ec3013"></rect>
  <g fill="#f3f2f2">
    <circle cx="50" cy="6" r="5.5"></circle>
    <circle cx="35" cy="26" r="5.5"></circle>
    <circle cx="25" cy="45" r="5.5"></circle>
    <circle cx="24" cy="65" r="5.5"></circle>
    <circle cx="35" cy="82" r="5.5"></circle>
    <circle cx="53" cy="90" r="5.5"></circle>
    <circle cx="70" cy="81" r="5.5"></circle>
    <circle cx="78" cy="63" r="5.5"></circle>
    <circle cx="72" cy="43" r="5.5"></circle>
  </g>
  <g fill="#7c1405">
    <polygon points="60.2,67.4 35.8,58 35.8,69.4 60.2,79.2"></polygon>
    <polygon points="60.2,48.7 35.8,39.3 35.8,49.8 60.2,59.5"></polygon>
  </g>
  <g fill="#201e1d">
    <polygon points="35.8,58 60.2,48.7 60.2,59.5 35.8,69.4"></polygon>
    <polygon points="35.8,39.3 53.2,31 53.2,40.7 35.8,49.8"></polygon>
    <polygon points="53.2,31 70.6,10.6 53.2,40.7"></polygon>
  </g>
</svg>