<svg xmlns="http://www.w3.org/2000/svg" viewBox="0 6 406 98" width="406" height="98" role="img" aria-label="TorchRef">
  <title>TorchRef</title>
  <!-- Light-background banner: transparent, chainbow and red darkened for contrast on white. -->
  <g transform="translate(-10.6 7.4)">
    <g fill="#c62a0e">
      <circle cx="50" cy="6" r="3.4"></circle>
      <circle cx="42" cy="16" r="3.4"></circle>
      <circle cx="35" cy="28" r="3.4"></circle>
      <circle cx="27" cy="41" r="3.4"></circle>
      <circle cx="22" cy="55" r="3.4"></circle>
      <circle cx="23" cy="68" r="3.4"></circle>
      <circle cx="30" cy="80" r="3.4"></circle>
      <circle cx="41" cy="88" r="3.4"></circle>
      <circle cx="50" cy="91" r="3.4"></circle>
      <circle cx="59" cy="88" r="3.4"></circle>
      <circle cx="70" cy="80" r="3.4"></circle>
      <circle cx="77" cy="68" r="3.4"></circle>
      <circle cx="78" cy="55" r="3.4"></circle>
      <circle cx="73" cy="41" r="3.4"></circle>
      <circle cx="65" cy="28" r="3.4"></circle>
    </g>
    <polygon points="63,69.6 36,58.9 36,69.1 63,80.4" fill="#2b5fd9"></polygon>
    <polygon points="63,48.2 36,37.6 36,46.4 63,57.8" fill="#217a3e"></polygon>
    <polygon points="36,58.9 63,48.2 63,57.8 36,69.1" fill="#0d8faa"></polygon>
    <polygon points="36,37.6 54,26 54,34 36,46.4" fill="#2a8f52"></polygon>
    <polygon points="54,26 67,5 54,34" fill="#5a9420"></polygon>
  </g>
  <text x="84" y="84" textLength="314" lengthAdjust="spacingAndGlyphs" font-family="Archivo, system-ui, -apple-system, Segoe UI, Helvetica, Arial, sans-serif" font-weight="800" font-size="72" letter-spacing="-1.5">
    <tspan fill="#c62a0e">Torch</tspan><tspan fill="#0d8faa">R</tspan><tspan fill="#2a8f52">e</tspan><tspan fill="#5a9420">f</tspan>
  </text>
</svg>
