<svg xmlns="http://www.w3.org/2000/svg" viewBox="0 0 500 120" width="500" height="120" role="img" aria-label="TorchRef">
  <title>TorchRef</title>
  <!-- Dark-background banner: transparent, full-brightness chainbow. -->
  <g transform="translate(-8.6 7.4)">
    <g fill="#ec3013">
      <circle cx="50" cy="6" r="3.4"></circle>
      <circle cx="42" cy="16" r="3.4"></circle>
      <circle cx="35" cy="28" r="3.4"></circle>
      <circle cx="27" cy="41" r="3.4"></circle>
      <circle cx="22" cy="55" r="3.4"></circle>
      <circle cx="23" cy="68" r="3.4"></circle>
      <circle cx="30" cy="80" r="3.4"></circle>
      <circle cx="41" cy="88" r="3.4"></circle>
      <circle cx="50" cy="91" r="3.4"></circle>
      <circle cx="59" cy="88" r="3.4"></circle>
      <circle cx="70" cy="80" r="3.4"></circle>
      <circle cx="77" cy="68" r="3.4"></circle>
      <circle cx="78" cy="55" r="3.4"></circle>
      <circle cx="73" cy="41" r="3.4"></circle>
      <circle cx="65" cy="28" r="3.4"></circle>
    </g>
    <polygon points="63,69.6 36,58.9 36,69.1 63,80.4" fill="#2b5fd9"></polygon>
    <polygon points="63,48.2 36,37.6 36,46.4 63,57.8" fill="#2f9e4f"></polygon>
    <polygon points="36,58.9 63,48.2 63,57.8 36,69.1" fill="#3fc4e0"></polygon>
    <polygon points="36,37.6 54,26 54,34 36,46.4" fill="#4fc27a"></polygon>
    <polygon points="54,26 67,5 54,34" fill="#8fd44a"></polygon>
  </g>
  <text x="82" y="84" font-family="Archivo, system-ui, -apple-system, Segoe UI, Helvetica, Arial, sans-serif" font-weight="800" font-size="72" letter-spacing="-1.5">
    <tspan fill="#ec3013">Torch</tspan><tspan fill="#3fc4e0">R</tspan><tspan fill="#4fc27a">e</tspan><tspan fill="#8fd44a">f</tspan>
  </text>
</svg>
